<?xml version="1.0" encoding="UTF-8" standalone="no"?>
<svg
   viewBox="0 0 700 315"
   xml:space="preserve"
   version="1.1"
   id="svg28"
   sodipodi:docname="nepathya.svg"
   width="700"
   height="315"
   inkscape:version="1.2.1 (9c6d41e410, 2022-07-14)"
   xmlns:inkscape="http://www.inkscape.org/namespaces/inkscape"
   xmlns:sodipodi="http://sodipodi.sourceforge.net/DTD/sodipodi-0.dtd"
   xmlns="http://www.w3.org/2000/svg"
   xmlns:svg="http://www.w3.org/2000/svg"><defs
     id="defs32" /><sodipodi:namedview
     id="namedview30"
     pagecolor="#ffffff"
     bordercolor="#666666"
     borderopacity="1.0"
     inkscape:showpageshadow="2"
     inkscape:pageopacity="0.0"
     inkscape:pagecheckerboard="0"
     inkscape:deskcolor="#d1d1d1"
     showgrid="false"
     inkscape:zoom="1.0992976"
     inkscape:cx="414.81032"
     inkscape:cy="91.422012"
     inkscape:window-width="1920"
     inkscape:window-height="1011"
     inkscape:window-x="0"
     inkscape:window-y="0"
     inkscape:window-maximized="1"
     inkscape:current-layer="g26" /><style
     id="style2">.a{fill:#fff}.b{fill:#fec747}</style><g
     id="g26"><path
       class="a"
       d="m 316.54197,54.625 h 3 l 2,1 -24,13 7,7 3,1 6,-2 2,-1 2,-1 v -1 h 1 v 2 l -1,2 -5,3 -4,2 -6,1 c -4,0 -7,-2 -10,-5 -2,-3 -3,-7 -3,-12 v -4 l 1,-1 v -1 l 7,-7 5,-3 6,-1 c 2,0 3,1 5,3 z m -14,-2 c -3,0 -5,2 -5,6 l -1,1 1,6 9,-4 c 2,-1 3,-2 3,-4 0,-2 -2,-4 -5,-5 z"
       id="path4"
       inkscape:export-filename="path4.svg"
       inkscape:export-xdpi="96"
       inkscape:export-ydpi="96" /><path
       class="a"
       d="m 339.54197,80.625 v 40 l -1,1 -1,1 h -2 l -1,1 h -1 l -3,-2 1,-14 1,-26 v -2 c -5,-1 -7,-2 -7,-4 l 3,-1 2,-1 2,-1 v -11 l -2,-5 h -1 v -1 h -1 l -1,-1 v -1 l 9,-5 v -1 h 1 l 2,2 v 7 l 6,-6 7,-3 h 1 c 2,0 4,2 6,4 2,2 3,4 3,7 0,4 -2,8 -4,12 -5,7 -9,10 -14,10 z m 0,-8 6,1 c 5,0 8,-1 10,-3 l 2,-5 c 0,-7 -3,-11 -10,-11 -3,0 -5,2 -8,5 z"
       id="path6" /><path
       class="a"
       d="m 365.54197,70.625 c 0,-4 2,-8 7,-14 2,-2 5,-5 10,-7 l 8,-2 h 3 c 5,1 7,2 7,4 l -1,2 -1,3 v 14 l 1,3 h 4 v 1 l -5,5 -2,2 h -1 v 1 l -3,1 -2,-2 v -10 c -4,5 -8,8 -12,10 h -4 c -2,0 -5,-1 -7,-3 l -2,-7 z m 26,-11 v -1 c 0,-3 -2,-5 -5,-6 h -1 c -3,0 -6,1 -9,4 -3,2 -4,5 -4,8 l 2,7 c 2,2 3,3 6,3 3,0 6,-2 8,-4 l 3,-9 z"
       id="path8" /><path
       class="a"
       d="m 469.54197,18.625 c 0,4 -2,9 -5,14 -5,8 -11,15 -19,21 l -2,2 v 17 l 5,-5 1,-1 5,-5 2,-2 2,-1 h 2 c 1,0 2,0 3,2 2,3 3,8 3,13 v 3 a 38,38 0 0 1 -36,35 c -2,0 -3,-1 -3,-2 0,-2 1,-2 3,-3 h 1 l 2,1 h 3 c 4,0 8,-2 12,-5 7,-7 10,-16 10,-27 v -3 c 0,-3 -1,-5 -3,-5 l -9,5 a 50,50 0 0 0 -6,7 l -1,1 -3,1 c -1,0 -2,-1 -2,-4 v -3 l 1,-2 v -11 h -1 l -1,1 -2,1 -1,1 -1,1 -1,-1 -1,-1 1,-1 7,-4 v -5 c 0,-10 1,-19 3,-26 4,-11 10,-17 18,-19 h 2 c 2,0 5,1 7,3 2,2 3,5 3,7 z m -23,3 c -3,6 -4,13 -4,20 v 5 l 1,6 3,-3 1,-1 1,-1 c 9,-9 14,-18 14,-27 l -2,-5 c -2,-2 -3,-3 -5,-3 h -1 c -4,1 -7,4 -8,9 z"
       id="path10" /><path
       class="a"
       d="m 509.54197,70.625 c 0,-4 2,-8 7,-14 l 9,-7 8,-2 h 4 c 5,1 7,2 7,4 l -1,2 -2,3 v 14 c 0,2 1,3 2,3 h 3 l 1,1 -5,5 -2,2 h -1 l -1,1 -2,1 -2,-2 v -10 c -4,5 -8,8 -12,10 h -4 c -3,0 -5,-1 -7,-3 l -3,-7 v -1 z m 26,-11 v -1 c 0,-3 -2,-5 -5,-6 h -1 c -4,0 -6,1 -9,4 -3,2 -4,5 -4,8 0,2 0,5 2,7 1,2 3,3 5,3 4,0 7,-2 8,-4 3,-3 4,-6 4,-9 z"
       id="path12" /><path
       class="a"
       d="m 195.54197,49.625 c 0,-11 2,-21 6,-29 4,-6 9,-9 16,-9 6,0 12,4 16,11 l 9,20 a 365,365 0 0 1 7,30 239,239 0 0 1 10,-44 c 2,-3 4,-5 6,-5 3,0 5,3 6,9 l 6,28 c 3,10 6,19 10,26 l 7,5 c 4,2 5,3 5,5 l -1,1 c -4,0 -8,-1 -13,-4 l -8,-10 -8,-22 a 365,365 0 0 0 -7,-25 c -2,0 -3,1 -3,3 a 292,292 0 0 0 -10,51 l -1,5 -1,2 c -2,0 -3,-1 -3,-2 l -1,-9 -4,-24 c -4,-16 -8,-29 -14,-38 -4,-5 -8,-8 -12,-8 -4,0 -8,3 -10,9 -2,3 -4,8 -4,13 l -1,8 c 0,11 3,21 8,29 4,8 9,12 16,12 l 5,-2 c 2,-2 3,-3 3,-5 v -1 h 1 l 3,3 v 2 c 0,3 -1,5 -3,7 -2,2 -4,3 -8,3 -6,0 -11,-3 -16,-9 -4,-4 -6,-10 -9,-17 -2,-6 -2,-12 -2,-19 z"
       id="path14" /><path
       class="a"
       d="m 420.54197,52.625 v 10 c 0,7 1,11 3,11 l 1,1 v 1 l -1,1 -6,4 v 1 h -1 l -1,1 c -2,0 -3,-3 -3,-10 a 226,226 0 0 1 0,-20 h -6 v -1 l 1,-2 h 6 a 220,220 0 0 1 12,-19 h 1 l 1,2 -3,6 -2,4 v 1 l -1,1 -1,5 h 8 l 1,1 v 1 l -1,1 z"
       id="path16" /><path
       class="a"
       d="m 473.54197,47.625 c 4,1 7,4 9,9 l 4,18 1,1 c 0,2 1,3 2,3 l 4,-4 c 3,-4 5,-8 5,-12 v -2 c -1,-5 -3,-7 -6,-7 h -2 l -1,1 h -2 v -2 h 1 c 2,-3 5,-5 8,-5 7,0 10,4 10,10 0,6 -3,12 -10,18 l -17,14 c -5,6 -8,12 -8,17 0,5 2,9 6,13 3,3 7,4 12,4 8,0 14,-2 17,-7 h 2 l 1,1 -10,8 c -3,2 -7,3 -12,3 -6,0 -11,-2 -15,-5 -4,-3 -6,-8 -6,-14 0,-5 2,-10 6,-15 l 7,-9 c 1,-3 0,-7 -1,-13 l -4,-12 c -1,-4 -3,-6 -5,-6 l -2,1 h -1 l -1,-1 c 0,-2 0,-4 2,-5 2,-2 3,-2 5,-2 z"
       id="path18" /><path
       class="b"
       d="m 374.54197,119.625 h -174 c 2,-4 6,-6 6,-6 3,-1 1,-4 1,-4 -1,-2 -5,-1 -5,-1 -20,1 -27,-26 -27,-26 l -9,-35 c -4,-19 -16,-29 -16,-29 -8,4 -29,0 -29,0 -13,-2 -21,-1 -21,-1 -25,6 -24,27 -24,27 3,28 25,26 25,26 20,-1 21,-14 21,-14 0,-17 -13,-19 -13,-19 -15,-3 -20,8 -20,8 -2,-4 0,-9 0,-9 6,-11 27,-7 27,-7 17,3 21,33 21,33 6,29 19,52 19,52 3,4 0,5 0,5 h -150 v 14 h 153 v 30 h -133 c -3,0 -2,4 -2,4 l 1,19 h -1 c -5,26 -1,41 -1,41 1,12 11,20 11,20 17,16 50,9 50,9 28,-8 24,-28 24,-28 l -1,-10 c -2,-13 -17,-16 -17,-16 -17,-3 -24,7 -24,7 -6,5 -4,15 -4,15 4,14 20,13 22,13 l 3,-1 c -11,16 -30,9 -30,9 -12,-5 -13,-18 -13,-18 v -19 c 5,-17 29,-16 29,-16 h 66 c 18,2 20,14 20,14 v 76 c 0,4 -9,9 -9,9 l -2,1 h 63 l -2,-2 c -10,-3 -8,-10 -8,-10 v -146 h 25 v 83 l 62,21 c 22,5 29,-12 29,-12 v 54 c 1,7 -9,11 -9,11 -2,1 -1,2 -1,2 h 62 l -1,-2 c -11,-4 -10,-12 -10,-12 v -146 h 16 z m -56,19 v 70 c 0,0 -8,-9 -19,-8 0,0 -15,1 -14,14 0,0 3,16 21,9 0,0 4,6 -7,9 0,0 -6,1 -13,-4 0,0 -23,-13 -22,-25 v -12 l 1,-57 h 50 c 0,0 4,0 3,4 z"
       id="path20" /><path
       class="b"
       d="m 390.54197,120.625 h 57 c 0,0 23,-1 25,16 v 58 c 0,0 2,21 -28,24 h -22 v 16 c 0,0 0,7 6,8 h 75 c 0,0 10,1 15,-15 l 1,1 v 26 c 0,0 0,5 -9,5 h -90 c 0,0 -29,0 -30,-21 v -37 c 0,0 0,-2 1,0 0,0 9,7 25,6 0,0 20,1 25,-10 v -55 c 0,0 1,-3 -4,-4 h -14 c 0,0 -15,-2 -23,18 0,0 -5,15 3,23 0,0 9,9 20,3 0,0 -19,-3 -13,-18 0,0 5,-9 17,-7 0,0 9,2 10,11 l -1,7 c 0,0 -2,16 -22,16 0,0 -24,1 -26,-24 z"
       id="path22" /><path
       class="b"
       d="m 691.54197,134.625 v -14 h -174 v 12 c 1,3 6,2 6,2 h 19 c 13,3 15,14 15,14 v 39 c -5,11 -16,10 -16,10 -7,0 -11,-6 -11,-6 h -1 v 44 c 5,23 34,24 34,24 h 52 c 12,-1 18,-10 18,-10 v 31 c 0,8 -9,11 -9,11 l -1,2 h 63 c 0,-2 -3,-3 -3,-3 -7,-2 -8,-12 -8,-12 l 1,-144 z m -57,88 c 0,0 -7,-8 -17,-6 0,0 -15,2 -15,16 0,0 -1,12 18,15 0,0 -3,5 -20,3 0,0 -27,-2 -33,-22 v -21 c 0,0 27,-1 30,-24 v -35 c 0,0 0,-8 -9,-13 v -1 h 46 z"
       id="path24" /></g></svg>
